<svg width="228" height="40.5" viewBox="0 0 456 81" fill="none" xmlns="http://www.w3.org/2000/svg">
<g clip-path="url(#clip0_2010_2333)">
<path d="M20.3041 23.9838H6.6053V9.31348H0V44.8909H6.6053V30.0816H20.3041V44.8909H26.9105V9.31348H20.3041V23.9838Z" fill="#041742"/>
<path d="M129.186 29.6465C131.081 27.5583 132.124 24.6001 132.124 21.3168C132.124 17.9562 131.108 15.0595 129.192 12.9472C127.73 11.2892 124.979 9.31335 120.167 9.31335H109.367V44.8909H115.973V33.2743H118.978L127.632 44.8909H135.238L125.728 32.1468C127.367 31.4217 128.498 30.4127 129.187 29.6466L129.186 29.6465ZM126.028 21.3168C126.028 23.1717 125.57 24.6013 124.655 25.5814C123.692 26.6714 122.181 27.2237 120.167 27.2237H115.973V15.41H120.167C122.208 15.41 123.718 15.9478 124.667 17.0184C125.57 17.9864 126.028 19.4316 126.028 21.3168Z" fill="#041742"/>
<path d="M156.383 9.31348H149.776V44.8909H156.383V9.31348Z" fill="#041742"/>
<path d="M175.606 9.31348V15.9188H188.916L172.477 44.8909H200.697V38.2844H184.26L200.697 9.31348H175.606Z" fill="#041742"/>
<path d="M216.386 44.8909H238.219V38.7943H222.993V29.3867H235.534V23.2902H222.993V15.3641H238.219V9.31348H216.386V44.8909Z" fill="#041742"/>
<path d="M275.631 31.603L258.908 9.31348H254.065V44.8909H260.671V22.553L277.48 44.8909H282.284V9.31348H275.631V31.603Z" fill="#041742"/>
<path d="M89.7536 11.5181L89.7519 11.5226L85.372 18.3057C86.7119 20.949 87.4718 23.936 87.4718 27.1022C87.4718 37.865 78.7468 46.59 67.984 46.59C64.8219 46.59 61.8385 45.8321 59.1978 44.4955L52.4126 48.8809C56.8011 52.0242 62.1742 53.8805 67.984 53.8805C82.7732 53.8805 94.7623 41.8915 94.7623 27.1023C94.7623 21.2869 92.9026 15.909 89.7537 11.5182L89.7536 11.5181Z" fill="url(#paint0_radial_2010_2333)"/>
<path d="M67.9841 40.5124C74.5766 40.5124 80.0574 35.768 81.208 29.5081C79.1215 29.0619 76.9586 28.8217 74.7389 28.8217C68.0553 28.8217 61.8743 30.958 56.8267 34.5752C59.2431 38.1568 63.3384 40.5123 67.9841 40.5123V40.5124Z" fill="url(#paint1_radial_2010_2333)"/>
<path d="M74.6133 26.3761C76.9543 26.3761 79.2347 26.6323 81.4338 27.1069C81.4338 27.1053 81.4339 27.1038 81.4339 27.1022C81.4339 19.674 75.4121 13.6524 67.9841 13.6524C60.5561 13.6524 54.5343 19.6741 54.5343 27.1022C54.5343 27.7125 54.5798 28.3116 54.6589 28.9001C54.6575 28.9012 54.6563 28.9019 54.6549 28.903C51.2679 31.4752 49.6618 33.5136 49.6108 33.5788C48.8939 31.5522 48.4964 29.3749 48.4964 27.1022C48.4964 16.3394 57.2213 7.61437 67.9841 7.61437C71.1358 7.61437 74.11 8.36718 76.7443 9.69557L83.5336 5.30787C79.1491 2.17407 73.7843 0.323975 67.9842 0.323975C53.1951 0.323975 41.2061 12.313 41.2061 27.1022C41.2061 33.0548 43.1514 38.5507 46.4376 42.9957C47.707 40.704 49.2479 38.5849 51.0167 36.679C51.0167 36.679 53.6579 33.9229 55.6817 32.5373C60.9956 28.6659 67.5356 26.3761 74.6135 26.3761H74.6133Z" fill="#041742"/>
<path d="M287.842 13.8991V9.87249H286.4V9.13708H290.119V9.87249H288.678V13.8991H287.842H287.842Z" fill="#041742"/>
<path d="M294.941 13.8991V10.3652L293.477 13.8991H293.12L291.664 10.3652V13.8991H290.829V9.13708H292.007L293.299 12.2713L294.598 9.13708H295.777V13.8991H294.941H294.941Z" fill="#041742"/>
<path d="M318.228 9.01807H314.925V44.7719H318.228V9.01807Z" fill="url(#paint2_linear_2010_2333)"/>
<path d="M345.073 44.6299H369.569V38.7217H351.716V29.5079H369.201V23.5992H351.716V15.0157H369.569V9.10754H345.073V44.6299Z" fill="#041742"/>
<path d="M396.581 8.52979C386.061 8.52979 378.425 16.2534 378.425 26.895C378.425 37.5366 386.061 45.2597 396.581 45.2597C407.102 45.2597 414.735 37.5361 414.735 26.895C414.735 16.2539 407.101 8.52979 396.581 8.52979ZM407.935 26.895C407.935 34.1987 403.266 39.2998 396.581 39.2998C389.897 39.2998 385.227 34.1987 385.227 26.895C385.227 19.5913 389.896 14.4907 396.581 14.4907C403.267 14.4907 407.935 19.5918 407.935 26.895Z" fill="#041742"/>
<path d="M449.007 9.10754V33.419L431.554 9.21154L431.48 9.10754H424.801V44.6299H431.444V19.6397L449.263 44.525L449.337 44.6299H455.65V9.10754H449.007Z" fill="#041742"/>
</g>
<path d="M240.617 71.3329C240.617 77.0029 244.937 80.6749 250.202 80.6749C253.469 80.6749 256.034 79.3249 257.87 77.2729V70.3879H249.284V73.6819H254.09V75.8689C253.307 76.5709 251.849 77.2459 250.202 77.2459C246.935 77.2459 244.559 74.7349 244.559 71.3329C244.559 67.9309 246.935 65.4199 250.202 65.4199C252.092 65.4199 253.631 66.4189 254.468 67.6879L257.654 65.9599C256.277 63.8269 253.928 62.0179 250.202 62.0179C244.937 62.0179 240.617 65.6359 240.617 71.3329Z" fill="#4CDFDD"/>
<path d="M262.75 71.3329C262.75 76.7599 266.719 80.6479 272.146 80.6479C277.6 80.6479 281.569 76.7599 281.569 71.3329C281.569 65.9059 277.6 62.0179 272.146 62.0179C266.719 62.0179 262.75 65.9059 262.75 71.3329ZM277.627 71.3329C277.627 74.6809 275.467 77.2459 272.146 77.2459C268.825 77.2459 266.692 74.6809 266.692 71.3329C266.692 67.9579 268.825 65.4199 272.146 65.4199C275.467 65.4199 277.627 67.9579 277.627 71.3329Z" fill="#4CDFDD"/>
<path d="M286.96 80.3239H296.734C300.163 80.3239 301.972 78.1639 301.972 75.4639C301.972 73.1959 300.433 71.3329 298.516 71.0359C300.217 70.6849 301.621 69.1729 301.621 66.9049C301.621 64.5019 299.866 62.3149 296.437 62.3149H286.96V80.3239ZM290.794 69.5509V65.5819H295.6C296.896 65.5819 297.706 66.4459 297.706 67.5529C297.706 68.7139 296.896 69.5509 295.6 69.5509H290.794ZM290.794 77.0569V72.8179H295.735C297.247 72.8179 298.057 73.7899 298.057 74.9239C298.057 76.2199 297.193 77.0569 295.735 77.0569H290.794Z" fill="#4CDFDD"/>
<path d="M307.563 80.3239H311.397V62.3149H307.563V80.3239Z" fill="#4CDFDD"/>
<path d="M331.438 80.3239H335.299V65.6899H340.537V62.3149H326.173V65.6899H331.438V80.3239Z" fill="#4CDFDD"/>
<path d="M345.695 80.3239H358.439V77.0029H349.529V72.8179H358.25V69.5239H349.529V65.6089H358.439V62.3149H345.695V80.3239Z" fill="#4CDFDD"/>
<path d="M362.894 77.7859C364.595 79.4869 367.079 80.6479 370.535 80.6479C375.395 80.6479 377.744 78.1639 377.744 74.8699C377.744 70.8739 373.964 69.9829 370.994 69.3079C368.915 68.8219 367.403 68.4439 367.403 67.2289C367.403 66.1489 368.321 65.3929 370.049 65.3929C371.804 65.3929 373.748 66.0139 375.206 67.3639L377.339 64.5559C375.557 62.9089 373.181 62.0449 370.319 62.0449C366.08 62.0449 363.488 64.4749 363.488 67.4719C363.488 71.4949 367.268 72.3049 370.211 72.9799C372.29 73.4659 373.856 73.9249 373.856 75.2749C373.856 76.3009 372.83 77.2999 370.724 77.2999C368.24 77.2999 366.269 76.1929 365 74.8699L362.894 77.7859Z" fill="#4CDFDD"/>
<path d="M386.999 80.3239H390.86V65.6899H396.098V62.3149H381.734V65.6899H386.999V80.3239Z" fill="#4CDFDD"/>
<path d="M413.676 80.3239H417.375V62.3149H413.541V73.9789L405.198 62.3149H401.256V80.3239H405.09V68.2279L413.676 80.3239Z" fill="#4CDFDD"/>
<path d="M423.626 80.3239H436.37V77.0029H427.46V72.8179H436.181V69.5239H427.46V65.6089H436.37V62.3149H423.626V80.3239Z" fill="#4CDFDD"/>
<path d="M446.225 80.3239H450.086V65.6899H455.324V62.3149H440.96V65.6899H446.225V80.3239Z" fill="#4CDFDD"/>
<defs>
<radialGradient id="paint0_radial_2010_2333" cx="0" cy="0" r="1" gradientUnits="userSpaceOnUse" gradientTransform="translate(89.7573 11.4861) scale(45.0522 45.0522)">
<stop offset="0.0986" stop-color="#26DB8D"/>
<stop offset="0.2628" stop-color="#22D299"/>
<stop offset="0.5637" stop-color="#19BABA"/>
<stop offset="0.886" stop-color="#0E9DE5"/>
</radialGradient>
<radialGradient id="paint1_radial_2010_2333" cx="0" cy="0" r="1" gradientUnits="userSpaceOnUse" gradientTransform="translate(89.7574 11.4861) scale(45.0522)">
<stop offset="0.0986" stop-color="#26DB8D"/>
<stop offset="0.2628" stop-color="#22D299"/>
<stop offset="0.5637" stop-color="#19BABA"/>
<stop offset="0.886" stop-color="#0E9DE5"/>
</radialGradient>
<linearGradient id="paint2_linear_2010_2333" x1="316.577" y1="10.5969" x2="316.577" y2="40.1526" gradientUnits="userSpaceOnUse">
<stop offset="0.0982" stop-color="#26DB8D"/>
<stop offset="0.2625" stop-color="#22D299"/>
<stop offset="0.5635" stop-color="#19BABA"/>
<stop offset="0.886" stop-color="#0E9DE5"/>
</linearGradient>
<clipPath id="clip0_2010_2333">
<rect width="455.65" height="53.5564" fill="white" transform="translate(0 0.323975)"/>
</clipPath>
</defs>
</svg>
